<svg version="1.1" id="Layer_1" xmlns="http://www.w3.org/2000/svg" xmlns:xlink="http://www.w3.org/1999/xlink" x="0px" y="0px"
	 width="100%" viewBox="200 200 660 640" enable-background="new 0 0 1024 1024" xml:space="preserve">
<path fill="#EC8F83" opacity="1.000000" stroke="none"
	d="
M770.941772,529.022949
	C769.985840,540.078674 769.029907,551.134399 767.772156,562.759949
	C766.803284,562.832764 765.653137,562.425903 765.541016,561.825256
	C763.557922,551.204346 757.331970,543.914001 748.697327,537.655212
	C736.205200,528.600464 723.112610,529.242981 709.952209,534.232117
	C698.566711,538.548340 689.454041,546.690552 682.420837,556.497192
	C669.306396,574.783020 663.032532,595.274658 666.164429,617.869080
	C667.468445,627.276428 670.271301,636.795654 677.301270,643.543640
	C693.623535,659.211060 713.609375,659.722961 732.231140,647.302368
	C735.905212,644.851868 739.607056,642.443115 743.296082,640.015137
	C736.535828,653.853638 727.299866,665.953125 717.216309,677.492310
	C714.190552,680.954834 711.655151,684.845886 708.312012,688.808289
	C703.242554,692.671570 698.936523,696.525269 694.233765,699.811096
	C683.252014,707.484070 672.430969,715.489319 660.871399,722.200012
	C651.903870,727.405884 641.963013,730.963257 632.370056,735.054626
	C624.325806,738.485474 616.159058,741.629211 608.046570,744.900146
	C600.339661,746.639587 592.706482,748.888733 584.911011,750.015747
	C567.004517,752.604187 558.516968,764.414612 553.906250,780.350220
	C552.938049,783.696533 551.907959,787.064026 551.390137,790.494751
	C549.015442,806.228638 539.509949,815.415344 524.606201,819.126465
	C506.347076,823.673157 488.142883,823.380676 470.139252,817.250793
	C457.745880,813.031006 450.932251,804.203674 447.952881,791.859924
	C446.085114,784.121582 444.611572,776.234985 442.017609,768.741516
	C439.926666,762.700989 436.970612,756.769226 433.333008,751.528625
	C431.252014,748.530579 427.314880,746.258606 423.740967,744.960754
	C411.255493,740.426392 398.564301,736.458557 385.254639,732.049683
	C369.333679,724.973572 353.682709,718.923340 338.985077,711.085388
	C316.925751,699.321838 295.881409,685.841064 278.848297,667.040100
	C278.188110,666.311401 276.810455,666.232666 275.767090,665.851074
	C263.058472,647.174805 248.772354,629.550537 239.286346,608.761597
	C227.932800,583.879944 220.470001,558.006348 217.902390,530.768982
	C217.092087,522.173035 216.092804,513.543640 216.101273,504.930450
	C216.143478,461.982483 225.013611,421.120972 245.790894,383.195038
	C246.587585,381.740753 247.230835,380.202454 248.300476,378.184509
	C252.844833,371.539276 256.995789,365.386047 261.231293,359.291565
	C272.180664,343.536377 286.002777,330.373108 299.554047,316.970917
	C301.305450,315.238770 303.069702,313.464783 305.065521,312.043732
	C314.997864,304.971588 325.009674,298.011017 334.993530,291.011200
	C344.352936,286.718445 353.559998,282.046295 363.103790,278.212585
	C382.456116,270.438751 402.615479,265.449463 423.749542,262.387939
	C424.722412,264.657776 425.114960,266.564850 425.553253,268.694061
	C426.790375,268.808411 427.926788,268.868713 429.050018,269.024200
	C441.955322,270.810699 454.933380,272.201752 467.739197,274.536499
	C478.278839,276.458099 488.613647,279.503479 499.243103,282.330566
	C502.629883,283.689270 505.812714,284.768219 509.316223,286.038330
	C512.838013,287.459442 515.982910,288.872040 519.252686,289.879364
	C525.137817,291.692322 531.097778,293.262360 537.251648,295.213928
	C538.738342,295.364746 540.015503,295.320435 541.258911,295.092346
	C548.387451,293.784912 549.220642,293.101196 548.904358,286.208221
	C548.596008,279.487244 547.664734,272.794800 547.006897,266.089844
	C564.488525,271.298309 582.001892,276.403870 599.432861,281.776520
	C604.821716,283.437469 610.026123,285.729980 615.245850,287.899597
	C627.586670,293.029144 638.430847,289.030670 649.395081,283.194305
	C660.809082,277.118500 672.254089,270.555328 684.467224,266.649994
	C704.303284,260.307068 724.481689,260.798981 743.703613,270.227753
	C753.888306,275.223602 758.544434,283.886719 760.041138,294.845520
	C762.122253,310.083405 758.046326,324.142365 752.492737,337.974518
	C748.038208,349.069153 743.465393,360.116333 738.686829,371.801361
	C737.580933,376.939117 736.412720,381.431519 736.005432,385.991852
	C735.759644,388.744019 735.179138,390.359650 732.571960,391.823090
	C721.561829,398.003418 710.308594,403.899567 699.967163,411.084076
	C687.584167,419.686951 674.522156,422.473328 659.793701,420.387238
	C650.088440,419.012634 640.238647,418.345581 630.432800,418.047943
	C592.198608,416.887329 555.956604,426.116547 520.437622,439.320526
	C502.163269,446.113922 484.339447,455.209900 463.826508,452.838043
	C461.192078,452.533417 458.533569,452.314697 455.883636,452.285004
	C408.434998,451.753052 361.001465,451.230164 313.729553,456.849213
	C295.113098,459.062073 278.093933,464.267090 265.573730,479.027954
	C258.269470,487.639404 251.587708,496.799286 244.961197,505.955048
	C242.360153,509.548950 240.178574,513.627075 238.677841,517.798340
	C235.760712,525.906372 240.293060,534.673035 248.605240,538.109375
	C255.254578,540.858276 260.777740,537.923279 265.101440,529.332947
	C265.400238,528.739258 265.631531,528.111877 265.905243,527.505188
	C271.166351,515.844421 276.064880,504.001160 281.808563,492.583038
	C286.268341,483.717224 294.046112,478.908813 304.033325,477.583557
	C317.083099,475.851898 329.157196,479.635315 340.919586,484.259216
	C351.584351,488.451508 362.179657,491.726654 373.835022,490.714142
	C383.946442,489.835754 394.103027,489.489014 404.234100,488.822296
	C417.507874,487.948792 430.772034,486.925629 444.048065,486.090302
	C456.002411,485.338104 467.987885,483.968414 479.922394,484.283051
	C496.503113,484.720184 499.012665,488.519257 502.257782,501.571259
	C505.856628,516.045776 509.993744,530.481140 515.231201,544.432373
	C524.212341,568.355713 542.626343,579.993286 567.781067,579.875305
	C612.627930,579.665039 648.375122,556.358093 664.082214,513.208740
	C670.015076,496.910370 672.983826,479.502838 676.854126,462.498596
	C678.420898,455.615112 682.733887,451.929352 688.688660,449.527985
	C693.216309,447.702148 695.607605,448.796600 697.166260,453.409760
	C698.116516,456.222046 698.745178,459.197357 699.095337,462.149536
	C702.397278,489.991608 730.236328,530.603210 770.941772,529.022949
M719.454834,360.085938
	C722.164734,363.725220 724.874634,367.364502 728.601562,372.369568
	C732.777222,363.075653 736.390259,355.125397 739.927124,347.141418
	C745.963013,333.516388 750.061707,319.513367 749.069885,304.331360
	C748.563416,296.578705 743.629456,289.922638 736.078979,287.995270
	C727.362610,285.770325 718.632141,286.322327 710.963806,290.737579
	C702.119202,295.830109 693.608948,301.693359 685.676514,308.115112
	C680.147705,312.590973 675.835999,318.570343 671.662964,323.132233
	C680.542603,328.148376 689.664246,332.045868 697.246338,337.927856
	C705.261047,344.145416 711.809387,352.253265 719.454834,360.085938
M497.980011,387.539612
	C512.402100,365.859619 533.988647,354.531708 558.263306,347.168762
	C553.920776,337.841858 547.837769,331.157104 540.750061,325.738678
	C536.885803,322.784515 531.599243,320.719116 526.749084,320.211456
	C513.028137,318.775299 504.088806,326.998413 496.899933,337.334381
	C489.689728,347.701019 486.088928,359.519836 483.452637,371.809418
	C480.220795,386.875183 479.629059,402.043976 480.044098,417.327637
	C480.081238,418.695740 480.711029,420.047760 481.297577,422.296936
	C487.004456,410.274445 492.265015,399.192139 497.980011,387.539612
z"/>
<path fill="#4B2221" opacity="1.000000" stroke="none"
	d="
M771.326416,528.870972
	C730.236328,530.603210 702.397278,489.991608 699.095337,462.149536
	C698.745178,459.197357 698.116516,456.222046 697.166260,453.409760
	C695.607605,448.796600 693.216309,447.702148 688.688660,449.527985
	C682.733887,451.929352 678.420898,455.615112 676.854126,462.498596
	C672.983826,479.502838 670.015076,496.910370 664.082214,513.208740
	C648.375122,556.358093 612.627930,579.665039 567.781067,579.875305
	C542.626343,579.993286 524.212341,568.355713 515.231201,544.432373
	C509.993744,530.481140 505.856628,516.045776 502.257782,501.571259
	C499.012665,488.519257 496.503113,484.720184 479.922394,484.283051
	C467.987885,483.968414 456.002411,485.338104 444.048065,486.090302
	C430.772034,486.925629 417.507874,487.948792 404.234100,488.822296
	C394.103027,489.489014 383.946442,489.835754 373.835022,490.714142
	C362.179657,491.726654 351.584351,488.451508 340.919586,484.259216
	C329.157196,479.635315 317.083099,475.851898 304.033325,477.583557
	C294.046112,478.908813 286.268341,483.717224 281.808563,492.583038
	C276.064880,504.001160 271.166351,515.844421 265.905243,527.505188
	C265.631531,528.111877 265.400238,528.739258 265.101440,529.332947
	C260.777740,537.923279 255.254578,540.858276 248.605240,538.109375
	C240.293060,534.673035 235.760712,525.906372 238.677841,517.798340
	C240.178574,513.627075 242.360153,509.548950 244.961197,505.955048
	C251.587708,496.799286 258.269470,487.639404 265.573730,479.027954
	C278.093933,464.267090 295.113098,459.062073 313.729553,456.849213
	C361.001465,451.230164 408.434998,451.753052 455.883636,452.285004
	C458.533569,452.314697 461.192078,452.533417 463.826508,452.838043
	C484.339447,455.209900 502.163269,446.113922 520.437622,439.320526
	C555.956604,426.116547 592.198608,416.887329 630.432800,418.047943
	C640.238647,418.345581 650.088440,419.012634 659.793701,420.387238
	C674.522156,422.473328 687.584167,419.686951 699.967163,411.084076
	C710.308594,403.899567 721.561829,398.003418 732.571960,391.823090
	C735.179138,390.359650 735.759644,388.744019 736.005432,385.991852
	C736.412720,381.431519 737.580933,376.939117 738.719482,372.186462
	C739.182312,371.984222 739.354187,372.013641 739.767517,372.560791
	C739.390686,377.244934 742.131104,377.030365 744.956543,377.026245
	C771.507385,376.987427 798.058533,377.051666 824.609070,376.957306
	C829.375977,376.940369 834.140808,376.333496 838.906555,375.999023
	C838.906555,375.998993 839.041199,376.408905 839.031738,377.055145
	C839.642151,379.800079 840.262024,381.898773 840.881897,383.997498
	C840.987549,385.052948 841.093201,386.108398 840.832275,387.841736
	C840.637207,392.678558 840.808655,396.837433 840.980103,400.996338
	C840.836060,401.563232 840.692078,402.130096 839.910950,402.920685
	C838.891907,404.240417 838.510010,405.336426 838.128113,406.432465
	C836.431824,422.107147 835.232239,437.856750 832.884033,453.433136
	C830.962891,466.176361 829.091248,479.235077 824.680359,491.228058
	C816.566345,513.289551 799.325073,524.977600 776.145142,528.020325
	C774.662109,528.215088 773.188843,528.484375 771.326416,528.870972
M622.270386,431.021423
	C616.312500,431.382385 610.302795,431.365662 604.406372,432.174713
	C586.299316,434.659302 568.628418,438.846985 551.755249,446.143219
	C526.634399,457.005829 521.227356,470.193329 521.327209,491.799957
	C521.400818,507.735657 526.164124,523.136841 532.076355,538.054016
	C540.055664,558.186340 553.601990,568.124573 574.288513,566.763733
	C583.395996,566.164551 592.634216,563.891479 601.295044,560.885803
	C622.797424,553.423523 637.836609,538.576111 647.183594,517.872314
	C655.686584,499.037964 659.316284,479.268738 657.914612,458.712830
	C657.145691,447.435913 652.831665,436.013031 638.318115,433.597321
	C633.275330,432.757935 628.234985,431.904053 622.270386,431.021423
M813.997253,393.462708
	C807.315918,388.041962 799.357422,386.956146 791.394531,388.245056
	C772.270508,391.340485 753.972534,397.056000 737.529663,407.739044
	C724.577209,416.154388 716.373718,427.349335 717.016479,443.475647
	C717.739685,461.622406 723.664185,478.232635 733.147888,493.517090
	C736.778442,499.368286 740.899902,505.276062 746.021545,509.760132
	C754.701233,517.359436 765.487854,518.352112 776.516479,515.967407
	C789.048096,513.257751 800.419617,507.892792 807.285645,496.751953
	C811.911743,489.245392 815.354980,480.724243 817.802979,472.218262
	C823.532898,452.308777 823.081848,431.823395 820.683777,411.487152
	C819.977234,405.495331 816.649719,399.812531 813.997253,393.462708
z"/>
<path fill="#F5AFA5" opacity="1.000000" stroke="none"
	d="
M743.563843,639.847900
	C739.607056,642.443115 735.905212,644.851868 732.231140,647.302368
	C713.609375,659.722961 693.623535,659.211060 677.301270,643.543640
	C670.271301,636.795654 667.468445,627.276428 666.164429,617.869080
	C663.032532,595.274658 669.306396,574.783020 682.420837,556.497192
	C689.454041,546.690552 698.566711,538.548340 709.952209,534.232117
	C723.112610,529.242981 736.205200,528.600464 748.697327,537.655212
	C757.331970,543.914001 763.557922,551.204346 765.541016,561.825256
	C765.653137,562.425903 766.803284,562.832764 767.706726,563.171082
	C767.418213,574.759094 767.988403,586.686096 766.091431,598.206909
	C763.716064,612.633179 757.235168,625.628784 746.540405,636.123474
	C745.487671,637.156616 744.727539,638.487793 743.563843,639.847900
M696.038696,610.194458
	C696.903076,612.856689 697.330933,615.793518 698.775879,618.090576
	C699.849060,619.796631 702.145813,621.404480 704.080750,621.657959
	C705.342834,621.823364 707.506348,619.772339 708.284485,618.221619
	C713.990173,606.851257 714.142212,594.975159 710.283325,583.099182
	C709.610229,581.027710 706.788513,578.456848 704.835815,578.348877
	C703.025574,578.248840 700.189453,580.756165 699.297729,582.774780
	C695.567810,591.218445 693.985596,600.098022 696.038696,610.194458
M744.244507,609.773254
	C751.164612,598.559814 751.188110,586.567810 747.811584,574.386841
	C747.247620,572.352539 744.781433,570.845581 743.194275,569.094910
	C741.472473,570.674683 738.988342,571.930237 738.155518,573.888184
	C733.567200,584.675110 733.622620,595.798523 737.201111,606.839172
	C738.052307,609.465393 739.904846,612.096191 744.244507,609.773254
z"/>
<path fill="#CEA362" opacity="1.000000" stroke="none"
	d="
M334.841614,290.708130
	C325.009674,298.011017 314.997864,304.971588 305.065521,312.043732
	C303.069702,313.464783 301.305450,315.238770 299.554047,316.970917
	C286.002777,330.373108 272.180664,343.536377 261.231293,359.291565
	C256.995789,365.386047 252.844833,371.539276 248.362732,377.826324
	C244.895782,375.594635 241.646698,373.294647 238.560028,370.794128
	C225.440186,360.165558 222.968124,346.735901 230.283615,330.269958
	C242.849915,301.985382 264.092194,282.109589 293.562347,271.607513
	C308.199860,266.391235 323.477203,270.135864 331.053467,285.036102
	C332.025513,286.947815 333.466156,288.621246 334.841614,290.708130
z"/>
<path fill="#DB776E" opacity="1.000000" stroke="none"
	d="
M275.806549,666.245605
	C276.810455,666.232666 278.188110,666.311401 278.848297,667.040100
	C295.881409,685.841064 316.925751,699.321838 338.985077,711.085388
	C353.682709,718.923340 369.333679,724.973572 384.916016,731.959167
	C382.933258,736.485840 380.984650,741.148438 378.173004,745.214294
	C371.579254,754.749207 361.666443,758.390808 350.643616,760.406067
	C335.772827,763.125000 321.169952,762.398071 306.772980,758.229248
	C291.933044,753.932312 285.457001,744.373230 284.900635,728.725281
	C284.387939,714.307007 283.525452,699.860718 281.833008,685.543091
	C281.070953,679.096313 277.915497,672.932434 275.806549,666.245605
z"/>
<path fill="#F7D057" opacity="1.000000" stroke="none"
	d="
M499.039215,282.050812
	C488.613647,279.503479 478.278839,276.458099 467.739197,274.536499
	C454.933380,272.201752 441.955322,270.810699 429.050018,269.024200
	C427.926788,268.868713 426.790375,268.808411 425.553253,268.694061
	C425.114960,266.564850 424.722412,264.657776 424.157379,262.394104
	C423.551819,250.025497 423.712097,238.118195 429.222656,226.976440
	C435.428162,214.429565 444.381409,205.700760 459.903015,205.272476
	C470.162445,207.426743 478.097961,211.789627 484.386169,219.502441
	C492.908234,229.955261 497.777222,241.780472 499.890411,254.998947
	C501.348724,264.121216 501.305725,273.095337 499.039215,282.050812
z"/>
<path fill="#DB786E" opacity="1.000000" stroke="none"
	d="
M608.161194,745.234253
	C616.159058,741.629211 624.325806,738.485474 632.370056,735.054626
	C641.963013,730.963257 651.903870,727.405884 660.871399,722.200012
	C672.430969,715.489319 683.252014,707.484070 694.233765,699.811096
	C698.936523,696.525269 703.242554,692.671570 708.120361,689.070923
	C707.073853,700.576599 705.460876,712.069275 704.276001,723.605957
	C703.734070,728.882690 704.082031,734.247131 703.945251,739.569702
	C703.546814,755.075256 695.970276,764.393188 680.917053,767.921265
	C663.639160,771.970642 646.586487,770.287537 629.710144,765.659912
	C619.107910,762.752747 612.681396,755.189514 608.161194,745.234253
z"/>
<path fill="#DFB13F" opacity="1.000000" stroke="none"
	d="
M499.243103,282.330566
	C501.305725,273.095337 501.348724,264.121216 499.890411,254.998947
	C497.777222,241.780472 492.908234,229.955261 484.386169,219.502441
	C478.097961,211.789627 470.162445,207.426743 460.325623,205.357300
	C472.692169,201.753860 483.223389,205.974442 492.505707,214.294571
	C494.713043,216.273117 497.076599,218.478607 498.290466,221.082230
	C500.953552,226.794281 505.265625,228.239044 511.188293,228.907043
	C525.473389,230.518158 533.931335,240.222931 540.256958,252.113327
	C542.583069,256.485718 544.379517,261.139862 546.712280,265.877686
	C547.664734,272.794800 548.596008,279.487244 548.904358,286.208221
	C549.220642,293.101196 548.387451,293.784912 541.258911,295.092346
	C540.015503,295.320435 538.738342,295.364746 537.241333,294.753448
	C537.003357,292.847443 536.945312,291.679047 537.006470,290.516907
	C538.068420,270.347473 531.532654,252.920639 517.515381,238.517136
	C514.503540,235.422302 510.024567,233.755341 505.839539,231.197205
	C508.075226,241.224167 510.755066,249.939804 511.798767,258.847137
	C512.856750,267.876404 512.476929,277.115021 508.995575,285.847198
	C505.812714,284.768219 502.629883,283.689270 499.243103,282.330566
z"/>
<path fill="#3F1E1D" opacity="1.000000" stroke="none"
	d="
M838.890259,375.608154
	C834.140808,376.333496 829.375977,376.940369 824.609070,376.957306
	C798.058533,377.051666 771.507385,376.987427 744.956543,377.026245
	C742.131104,377.030365 739.390686,377.244934 740.009033,372.661377
	C756.700623,372.125244 773.392029,372.006195 790.624390,372.142395
	C791.441406,372.323059 791.717468,372.248444 791.993530,372.173767
	C794.046936,372.158539 796.100403,372.143311 798.778442,372.493225
	C804.493347,377.362732 809.176697,373.419189 813.989197,372.155823
	C820.724609,372.361481 827.469788,372.423309 834.188416,372.877594
	C835.795654,372.986298 837.314453,374.402466 838.890259,375.608154
z"/>
<path fill="#482B2A" opacity="1.000000" stroke="none"
	d="
M813.534119,372.050629
	C809.176697,373.419189 804.493347,377.362732 799.213135,372.564331
	C803.708496,372.162048 808.393799,372.053741 813.534119,372.050629
z"/>
<path fill="#3F1E1D" opacity="1.000000" stroke="none"
	d="
M841.175415,400.637390
	C840.808655,396.837433 840.637207,392.678558 840.775574,388.238495
	C841.180542,392.064362 841.275696,396.171387 841.175415,400.637390
z"/>
<path fill="#3F1E1D" opacity="1.000000" stroke="none"
	d="
M840.931396,383.597626
	C840.262024,381.898773 839.642151,379.800079 839.039368,377.270752
	C839.697937,378.959351 840.339417,381.078552 840.931396,383.597626
z"/>
<path fill="#3F1E1D" opacity="1.000000" stroke="none"
	d="
M838.401978,406.235168
	C838.510010,405.336426 838.891907,404.240417 839.647705,403.074951
	C839.572998,404.016327 839.124451,405.027100 838.401978,406.235168
z"/>
<path fill="#482B2A" opacity="1.000000" stroke="none"
	d="
M791.754761,372.057983
	C791.717468,372.248444 791.441406,372.323059 791.084595,372.239502
	C791.174500,372.034973 791.345215,371.988586 791.754761,372.057983
z"/>
<path fill="#DB756B" opacity="1.000000" stroke="none"
	d="
M719.226562,359.810669
	C711.809387,352.253265 705.261047,344.145416 697.246338,337.927856
	C689.664246,332.045868 680.542603,328.148376 671.662964,323.132233
	C675.835999,318.570343 680.147705,312.590973 685.676514,308.115112
	C693.608948,301.693359 702.119202,295.830109 710.963806,290.737579
	C718.632141,286.322327 727.362610,285.770325 736.078979,287.995270
	C743.629456,289.922638 748.563416,296.578705 749.069885,304.331360
	C750.061707,319.513367 745.963013,333.516388 739.927124,347.141418
	C736.390259,355.125397 732.777222,363.075653 728.601562,372.369568
	C724.874634,367.364502 722.164734,363.725220 719.226562,359.810669
z"/>
<path fill="#DB746B" opacity="1.000000" stroke="none"
	d="
M497.752808,387.824707
	C492.265015,399.192139 487.004456,410.274445 481.297577,422.296936
	C480.711029,420.047760 480.081238,418.695740 480.044098,417.327637
	C479.629059,402.043976 480.220795,386.875183 483.452637,371.809418
	C486.088928,359.519836 489.689728,347.701019 496.899933,337.334381
	C504.088806,326.998413 513.028137,318.775299 526.749084,320.211456
	C531.599243,320.719116 536.885803,322.784515 540.750061,325.738678
	C547.837769,331.157104 553.920776,337.841858 558.263306,347.168762
	C533.988647,354.531708 512.402100,365.859619 497.752808,387.824707
z"/>
<path fill="#F7D057" opacity="1.000000" stroke="none"
	d="
M509.316223,286.038330
	C512.476929,277.115021 512.856750,267.876404 511.798767,258.847137
	C510.755066,249.939804 508.075226,241.224167 505.839539,231.197205
	C510.024567,233.755341 514.503540,235.422302 517.515381,238.517136
	C531.532654,252.920639 538.068420,270.347473 537.006470,290.516907
	C536.945312,291.679047 537.003357,292.847443 537.016235,294.473389
	C531.097778,293.262360 525.137817,291.692322 519.252686,289.879364
	C515.982910,288.872040 512.838013,287.459442 509.316223,286.038330
z"/>
<path fill="#65423C" opacity="1.000000" stroke="none"
	d="
M622.731934,431.039124
	C628.234985,431.904053 633.275330,432.757935 638.318115,433.597321
	C652.831665,436.013031 657.145691,447.435913 657.914612,458.712830
	C659.316284,479.268738 655.686584,499.037964 647.183594,517.872314
	C637.836609,538.576111 622.797424,553.423523 601.295044,560.885803
	C592.634216,563.891479 583.395996,566.164551 574.288513,566.763733
	C553.601990,568.124573 540.055664,558.186340 532.076355,538.054016
	C526.164124,523.136841 521.400818,507.735657 521.327209,491.799957
	C521.227356,470.193329 526.634399,457.005829 551.755249,446.143219
	C568.628418,438.846985 586.299316,434.659302 604.406372,432.174713
	C610.302795,431.365662 616.312500,431.382385 622.731934,431.039124
z"/>
<path fill="#65423D" opacity="1.000000" stroke="none"
	d="
M814.260315,393.725403
	C816.649719,399.812531 819.977234,405.495331 820.683777,411.487152
	C823.081848,431.823395 823.532898,452.308777 817.802979,472.218262
	C815.354980,480.724243 811.911743,489.245392 807.285645,496.751953
	C800.419617,507.892792 789.048096,513.257751 776.516479,515.967407
	C765.487854,518.352112 754.701233,517.359436 746.021545,509.760132
	C740.899902,505.276062 736.778442,499.368286 733.147888,493.517090
	C723.664185,478.232635 717.739685,461.622406 717.016479,443.475647
	C716.373718,427.349335 724.577209,416.154388 737.529663,407.739044
	C753.972534,397.056000 772.270508,391.340485 791.394531,388.245056
	C799.357422,386.956146 807.315918,388.041962 814.260315,393.725403
z"/>
<path fill="#DC7970" opacity="1.000000" stroke="none"
	d="
M696.016357,609.765381
	C693.985596,600.098022 695.567810,591.218445 699.297729,582.774780
	C700.189453,580.756165 703.025574,578.248840 704.835815,578.348877
	C706.788513,578.456848 709.610229,581.027710 710.283325,583.099182
	C714.142212,594.975159 713.990173,606.851257 708.284485,618.221619
	C707.506348,619.772339 705.342834,621.823364 704.080750,621.657959
	C702.145813,621.404480 699.849060,619.796631 698.775879,618.090576
	C697.330933,615.793518 696.903076,612.856689 696.016357,609.765381
z"/>
<path fill="#DB7870" opacity="1.000000" stroke="none"
	d="
M743.925171,609.964294
	C739.904846,612.096191 738.052307,609.465393 737.201111,606.839172
	C733.622620,595.798523 733.567200,584.675110 738.155518,573.888184
	C738.988342,571.930237 741.472473,570.674683 743.194275,569.094910
	C744.781433,570.845581 747.247620,572.352539 747.811584,574.386841
	C751.188110,586.567810 751.164612,598.559814 743.925171,609.964294
z"/>
</svg>
